<svg width="378" height="343" viewBox="0 0 378 343" fill="none" xmlns="http://www.w3.org/2000/svg">
<path fill-rule="evenodd" clip-rule="evenodd" d="M44 158C37.5968 166.098 30.3545 206.436 53 254.5C53.9597 261.239 54.8243 265.005 49.5 272C42.819 278.327 43.0104 289.155 44 294.5C44.9896 299.845 49.1427 315.955 55 320.5C60.4673 321.867 61.5327 320.633 67 322C70.0136 308.934 73.7137 305.578 79 297C95.2921 284.853 100.577 284.458 108.5 283.269C108.242 278.868 109.5 276.5 108.5 272C107.5 267.5 96 257.5 96 257.5C91.7023 253.757 91 249 88.5 245C86 241 81.3571 234.275 80.5 229C79.7029 222.761 79.9256 220.404 80.5 216.5C83.4463 206.344 85 207 88.5 203C92 199 106 195 106 195C106 195 140.5 197.5 144 199C147.5 200.5 160.608 212.669 162.5 223C163.482 229.426 163.344 233.452 162.5 241C159.174 247.896 156.611 251.582 149.5 257.5L135.5 265.5C132.095 266.242 130.25 268.005 127 272C123.75 275.995 121.5 284.542 121.5 284.542C126.126 286.44 131.051 289.673 138 294.5C152.306 310.881 162.139 321.631 169.311 328.5C178.083 336.902 182.874 339.5 187 339.5C194.5 339.5 222 322 222 322C222 322 228.244 303.124 226 297C301.678 237.141 272.65 213.947 287.5 162.5C306.511 145.816 316.024 132.179 329 129L329.007 128.971C331.921 117.39 333.556 110.889 331.5 101.5C346.275 74.1364 344.548 67.0796 347.5 49.5C361.426 55.1398 368.965 56.047 373 56.5C377.035 56.953 373.337 51.9878 373 49.5C365.385 43.5115 361.166 40.5395 354 38C338.631 29.2132 332.185 27.2522 320.5 23.5C310.343 23.214 306.391 22.3866 302.5 23.5C298.609 24.6134 284.124 31.67 282 33.5C257.994 45.6304 250.477 55.6681 238 65.5C194.261 55.7274 168.633 53.3264 121.5 53C118.403 43.224 106 29.5 106 29.5C106 29.5 91.2198 13.9621 80.5 8.49999C66.7416 2.81053 59.6491 3.59453 47 4.99999C24.8011 11.881 17.6583 16.9072 5.5 26C2.89691 29.4697 2.76066 31.1406 5.5 33.5C13.9685 37.0343 30.2474 28.7148 32.5 26C34.7526 23.2852 39.7699 23.7558 41 23.5C42.9003 44.4511 43.5897 56.2125 37 77.5C34.0891 99.2329 37.4571 107.872 49.5 119C46.7278 132.026 50.4032 149.902 44 158ZM75 151.5C68.1618 148.081 67.1687 126.761 67.0245 120.641C77.829 107.397 87.087 99.5603 99 95.6927C99 95.6927 108.5 110.5 108.5 115.5C108.5 120.5 113.5 132.5 101 147.5C88.5 162.5 83 155.5 75 151.5ZM229.5 172C235 171 246.161 162.062 251 153L252.284 147.5C244.722 133.775 233.819 120.695 228.241 115.5L217.5 123C211.392 127.793 209.007 131.165 206 138C202.65 148.32 204.989 154.291 210.5 165C220.58 176.153 224 173 229.5 172Z" fill="white"/>
<path d="M251 153C246.161 162.062 235 171 229.5 172C224 173 220.58 176.153 210.5 165C204.989 154.291 202.65 148.32 206 138C209.007 131.165 211.392 127.793 217.5 123L228.241 115.5C233.819 120.695 244.722 133.775 252.284 147.5L251 153Z" fill="black"/>
<path d="M75 151.5C83 155.5 88.5 162.5 101 147.5C113.5 132.5 108.5 120.5 108.5 115.5C108.5 110.5 99 95.6927 99 95.6927C87.087 99.5603 77.829 107.397 67.0245 120.641C67.1687 126.761 68.1618 148.081 75 151.5Z" fill="black"/>
<path d="M88.5 203C85 207 83.4463 206.344 80.5 216.5C79.9256 220.404 79.7029 222.761 80.5 229C81.3571 234.275 86 241 88.5 245C91 249 91.7023 253.757 96 257.5C96 257.5 107.5 267.5 108.5 272C109.5 276.5 108.242 278.868 108.5 283.269C109.894 283.06 111.369 282.826 113 282.5C115.982 282.725 118.686 283.386 121.5 284.542C121.5 284.542 123.75 275.995 127 272C130.25 268.005 132.095 266.242 135.5 265.5L149.5 257.5C156.611 251.582 159.174 247.896 162.5 241C163.344 233.452 163.482 229.426 162.5 223C160.608 212.669 147.5 200.5 144 199C140.5 197.5 106 195 106 195C106 195 92 199 88.5 203Z" fill="black"/>
<path d="M79 297C73.7137 305.578 70.0136 308.934 67 322C68.9681 314.902 70.7556 313.274 75 314C79.525 315.942 82.6194 318.641 88.5 324.5C99.0074 330.868 106.094 331.808 121 328.5C138.7 334.21 146.501 335.082 153 328.5C157.348 327.476 160.421 327.224 169.311 328.5C162.139 321.631 152.306 310.881 138 294.5C131.051 289.673 126.126 286.44 121.5 284.542C118.686 283.386 115.982 282.725 113 282.5C111.369 282.826 109.894 283.06 108.5 283.269C100.577 284.458 95.2921 284.853 79 297Z" fill="black"/>
<path d="M329 129C316.024 132.179 306.511 145.816 287.5 162.5C272.65 213.947 301.678 237.141 226 297C228.244 303.124 222 322 222 322C222 322 194.5 339.5 187 339.5C182.874 339.5 178.083 336.902 169.311 328.5M329 129L329.007 128.971M329 129C329.002 128.99 329.005 128.981 329.007 128.971M67 322C70.0136 308.934 73.7137 305.578 79 297C95.2921 284.853 100.577 284.458 108.5 283.269M67 322C61.5327 320.633 60.4673 321.867 55 320.5C49.1427 315.955 44.9896 299.845 44 294.5C43.0104 289.155 42.819 278.327 49.5 272C54.8243 265.005 53.9597 261.239 53 254.5C30.3545 206.436 37.5968 166.098 44 158C50.4032 149.902 46.7278 132.026 49.5 119C37.4571 107.872 34.0891 99.2329 37 77.5C43.5897 56.2125 42.9003 44.4511 41 23.5C39.7699 23.7558 34.7526 23.2852 32.5 26C30.2474 28.7148 13.9685 37.0343 5.5 33.5C2.76066 31.1406 2.89691 29.4697 5.5 26C17.6583 16.9072 24.8011 11.881 47 4.99999C59.6491 3.59453 66.7416 2.81053 80.5 8.49999C91.2198 13.9621 106 29.5 106 29.5C106 29.5 118.403 43.224 121.5 53C168.633 53.3264 194.261 55.7274 238 65.5C250.477 55.6681 257.994 45.6304 282 33.5C284.124 31.67 298.609 24.6134 302.5 23.5C306.391 22.3866 310.343 23.214 320.5 23.5C332.185 27.2522 338.631 29.2132 354 38C361.166 40.5395 365.385 43.5115 373 49.5C373.337 51.9878 377.035 56.953 373 56.5C368.965 56.047 361.426 55.1398 347.5 49.5C344.548 67.0796 346.275 74.1364 331.5 101.5C333.556 110.889 331.921 117.39 329.007 128.971M67 322C68.9681 314.902 70.7556 313.274 75 314C79.525 315.942 82.6194 318.641 88.5 324.5C99.0074 330.868 106.094 331.808 121 328.5C138.7 334.21 146.501 335.082 153 328.5C157.348 327.476 160.421 327.224 169.311 328.5M169.311 328.5C162.139 321.631 152.306 310.881 138 294.5C131.051 289.673 126.126 286.44 121.5 284.542M121.5 284.542C118.686 283.386 115.982 282.725 113 282.5C111.369 282.826 109.894 283.06 108.5 283.269M121.5 284.542C121.5 284.542 123.75 275.995 127 272C130.25 268.005 132.095 266.242 135.5 265.5L149.5 257.5C156.611 251.582 159.174 247.896 162.5 241C163.344 233.452 163.482 229.426 162.5 223C160.608 212.669 147.5 200.5 144 199C140.5 197.5 106 195 106 195C106 195 92 199 88.5 203C85 207 83.4463 206.344 80.5 216.5C79.9256 220.404 79.7029 222.761 80.5 229C81.3571 234.275 86 241 88.5 245C91 249 91.7023 253.757 96 257.5C96 257.5 107.5 267.5 108.5 272C109.5 276.5 108.242 278.868 108.5 283.269M67 119C67 119 67 119.601 67.0245 120.641M55 136.5C59.3138 130.518 63.2629 125.252 67.0245 120.641M113 93C107.865 93.4332 103.263 94.3089 99 95.6927M99 95.6927C99 95.6927 108.5 110.5 108.5 115.5C108.5 120.5 113.5 132.5 101 147.5C88.5 162.5 83 155.5 75 151.5C68.1618 148.081 67.1687 126.761 67.0245 120.641M99 95.6927C87.087 99.5603 77.829 107.397 67.0245 120.641M204 105C204 105 220 109 226.5 114C226.996 114.382 227.581 114.886 228.241 115.5M259.5 165C258.174 159.432 255.539 153.406 252.284 147.5M228.241 115.5L217.5 123C211.392 127.793 209.007 131.165 206 138C202.65 148.32 204.989 154.291 210.5 165C220.58 176.153 224 173 229.5 172C235 171 246.161 162.062 251 153L252.284 147.5M228.241 115.5C233.819 120.695 244.722 133.775 252.284 147.5" stroke="white" stroke-width="6"/>
</svg>
