<svg width="378" height="343" viewBox="0 0 378 343" fill="none" xmlns="http://www.w3.org/2000/svg">
<path d="M329 129C316.024 132.179 306.511 145.816 287.5 162.5C272.65 213.947 301.678 237.141 226 297C228.244 303.124 222 322 222 322C222 322 194.5 339.5 187 339.5C182.874 339.5 178.083 336.902 169.311 328.5M329 129L329.007 128.971M329 129C329.002 128.99 329.005 128.981 329.007 128.971M67 322C70.0136 308.934 73.7137 305.578 79 297C95.2921 284.853 100.577 284.458 108.5 283.269M67 322C61.5327 320.633 60.4673 321.867 55 320.5C49.1427 315.955 44.9896 299.845 44 294.5C43.0104 289.155 42.819 278.327 49.5 272C54.8243 265.005 53.9597 261.239 53 254.5C30.3545 206.436 37.5968 166.098 44 158C50.4032 149.902 46.7278 132.026 49.5 119C37.4571 107.872 34.0891 99.2329 37 77.5C43.5897 56.2125 42.9003 44.4511 41 23.5C39.7699 23.7558 34.7526 23.2852 32.5 26C30.2474 28.7148 13.9685 37.0343 5.5 33.5C2.76066 31.1406 2.89691 29.4697 5.5 26C17.6583 16.9072 24.8011 11.881 47 4.99999C59.6491 3.59453 66.7416 2.81053 80.5 8.49999C91.2198 13.9621 106 29.5 106 29.5C106 29.5 118.403 43.224 121.5 53C168.633 53.3264 194.261 55.7274 238 65.5C250.477 55.6681 257.994 45.6304 282 33.5C284.124 31.67 298.609 24.6134 302.5 23.5C306.391 22.3866 310.343 23.214 320.5 23.5C332.185 27.2522 338.631 29.2132 354 38C361.166 40.5395 365.385 43.5115 373 49.5C373.337 51.9878 377.035 56.953 373 56.5C368.965 56.047 361.426 55.1398 347.5 49.5C344.548 67.0796 346.275 74.1364 331.5 101.5C333.556 110.889 331.921 117.39 329.007 128.971M67 322C68.9681 314.902 70.7556 313.274 75 314C79.525 315.942 82.6194 318.641 88.5 324.5C99.0074 330.868 106.094 331.808 121 328.5C138.7 334.21 146.501 335.082 153 328.5C157.348 327.476 160.421 327.224 169.311 328.5M169.311 328.5C162.139 321.631 152.306 310.881 138 294.5C131.051 289.673 126.126 286.44 121.5 284.542M121.5 284.542C118.686 283.386 115.982 282.725 113 282.5C111.369 282.826 109.894 283.06 108.5 283.269M121.5 284.542C121.5 284.542 123.75 275.995 127 272C130.25 268.005 132.095 266.242 135.5 265.5L149.5 257.5C156.611 251.582 159.174 247.896 162.5 241C163.344 233.452 163.482 229.426 162.5 223C160.608 212.669 147.5 200.5 144 199C140.5 197.5 106 195 106 195C106 195 92 199 88.5 203C85 207 83.4463 206.344 80.5 216.5C79.9256 220.404 79.7029 222.761 80.5 229C81.3571 234.275 86 241 88.5 245C91 249 91.7023 253.757 96 257.5C96 257.5 107.5 267.5 108.5 272C109.5 276.5 108.242 278.868 108.5 283.269M67 119C67 119 67 147.5 75 151.5C83 155.5 88.5 162.5 101 147.5C113.5 132.5 108.5 120.5 108.5 115.5C108.5 110.5 99 95.6927 99 95.6927M55 136.5C71.7043 113.336 82.9395 100.907 99 95.6927M113 93C107.865 93.4332 103.263 94.3089 99 95.6927M204 105C204 105 220 109 226.5 114C226.996 114.382 227.581 114.886 228.241 115.5M259.5 165C258.174 159.432 255.539 153.406 252.284 147.5M228.241 115.5L217.5 123C211.392 127.793 209.007 131.165 206 138C202.65 148.32 204.989 154.291 210.5 165C220.58 176.153 224 173 229.5 172C235 171 246.161 162.062 251 153L252.284 147.5M228.241 115.5C233.819 120.695 244.722 133.775 252.284 147.5" stroke="white" stroke-width="6"/>
</svg>
